<?xml version="1.0" standalone="no"?>
<!DOCTYPE svg PUBLIC "-//W3C//DTD SVG 20010904//EN"
 "http://www.w3.org/TR/2001/REC-SVG-20010904/DTD/svg10.dtd">
<svg version="1.0" xmlns="http://www.w3.org/2000/svg"
 width="16.000000pt" height="16.000000pt" viewBox="0 0 16.000000 16.000000"
 preserveAspectRatio="xMidYMid meet">
<metadata>
Created by potrace 1.11, written by Peter Selinger 2001-2013
</metadata>
<g transform="translate(0.000000,16.000000) scale(0.004571,-0.004571)"
fill="#000000" stroke="none">
<path d="M1401 2873 c-1 -7 -8 -10 -18 -6 -12 5 -14 3 -8 -8 7 -12 6 -12 -7
-1 -11 9 -18 10 -23 2 -4 -7 -12 -7 -25 0 -10 6 -21 6 -24 2 -3 -5 -22 -8 -43
-8 -22 1 -43 -5 -51 -14 -8 -8 -11 -10 -8 -3 4 6 2 14 -4 18 -5 3 -10 1 -10
-6 0 -7 -3 -9 -6 -6 -4 3 -16 2 -27 -4 -15 -8 -18 -8 -12 1 6 9 2 9 -15 0 -12
-6 -28 -9 -36 -6 -8 3 -14 1 -14 -4 0 -5 -7 -7 -15 -4 -8 4 -23 0 -32 -7 -14
-12 -16 -12 -8 1 7 12 6 13 -6 3 -12 -10 -18 -10 -29 0 -10 10 -11 9 -5 -2 6
-11 4 -13 -8 -8 -10 4 -20 0 -26 -11 -7 -12 -10 -13 -11 -3 0 11 -3 11 -15 1
-12 -10 -15 -10 -15 1 0 12 -2 12 -9 0 -6 -8 -20 -12 -39 -9 -19 3 -30 0 -29
-6 1 -6 -7 -11 -18 -11 -11 -1 -25 -3 -30 -7 -6 -3 -18 -4 -28 -2 -10 1 -21
-4 -23 -11 -3 -8 -11 -12 -19 -9 -7 3 -19 -2 -27 -10 -12 -11 -18 -12 -28 -3
-10 9 -11 9 -6 0 4 -7 3 -13 -3 -13 -5 0 -8 -9 -6 -20 2 -12 -2 -23 -10 -27
-8 -3 -13 -8 -10 -12 2 -4 -3 -20 -11 -36 -8 -15 -12 -30 -10 -33 3 -2 -2 -11
-10 -19 -8 -8 -12 -19 -9 -24 4 -5 1 -9 -5 -9 -6 0 -8 -5 -5 -10 4 -6 1 -17
-5 -25 -7 -8 -9 -15 -5 -15 4 0 0 -12 -10 -26 -9 -15 -12 -24 -6 -20 5 4 4 -6
-4 -20 -8 -15 -12 -31 -9 -36 3 -4 1 -8 -3 -8 -5 0 -10 -10 -11 -22 -5 -49
-10 -63 -23 -60 -8 1 -5 -4 5 -13 16 -12 17 -15 4 -15 -10 0 -14 -8 -13 -25 2
-14 -1 -25 -7 -25 -6 0 -4 -7 3 -17 12 -14 12 -16 0 -8 -11 6 -13 4 -8 -8 3
-10 3 -17 -2 -17 -4 0 -7 -20 -7 -44 1 -24 -2 -42 -5 -40 -11 6 -17 -33 -8
-47 4 -8 3 -19 -3 -26 -6 -7 -7 -13 -4 -13 4 0 2 -9 -4 -19 -6 -13 -7 -22 0
-26 5 -3 7 -12 4 -20 -4 -8 -11 -12 -17 -8 -6 4 -7 1 -1 -8 13 -21 14 -39 1
-39 -8 0 -8 -3 -2 -8 12 -9 16 -44 4 -36 -13 8 -11 -10 4 -25 6 -8 8 -11 2 -8
-6 3 -10 -33 -10 -101 0 -60 4 -110 10 -114 7 -5 6 -8 0 -8 -14 0 -12 -39 3
-66 6 -12 8 -24 5 -28 -12 -12 -12 -36 0 -36 7 0 5 -5 -3 -10 -10 -6 -11 -10
-2 -10 6 0 12 -5 12 -11 0 -5 -6 -7 -12 -3 -9 6 -9 3 0 -9 8 -9 11 -21 7 -27
-3 -5 0 -10 7 -10 9 0 9 -3 -2 -10 -8 -5 -10 -10 -3 -10 12 0 12 -17 0 -37 -5
-8 -3 -11 6 -8 9 4 13 -3 13 -22 -1 -15 3 -29 8 -30 5 0 13 -8 18 -17 5 -9 13
-14 19 -11 5 4 9 1 9 -4 0 -6 6 -11 14 -11 8 0 16 -7 20 -15 3 -8 12 -12 21
-9 8 3 15 1 15 -6 0 -6 5 -8 10 -5 6 3 10 1 10 -5 0 -6 4 -8 10 -5 5 3 10 1
10 -4 0 -6 7 -11 15 -11 8 0 15 -4 15 -10 0 -5 9 -10 20 -10 11 0 20 -4 20 -8
0 -5 6 -9 13 -9 6 0 32 -12 56 -27 24 -15 40 -23 36 -17 -3 6 10 0 30 -14 21
-13 41 -22 46 -19 5 3 9 0 9 -6 0 -6 4 -8 10 -5 6 3 10 1 10 -4 0 -6 9 -11 20
-11 11 0 20 -5 20 -12 0 -6 3 -8 7 -5 3 4 17 0 31 -9 17 -11 22 -12 17 -3 -5
8 1 6 12 -4 11 -9 23 -14 26 -10 4 3 7 1 7 -5 0 -7 11 -12 25 -12 14 0 28 -6
31 -14 3 -8 13 -12 25 -9 11 3 19 0 19 -7 0 -7 8 -10 20 -7 11 3 20 1 20 -5 0
-5 4 -7 9 -3 5 3 12 1 16 -5 3 -5 17 -10 31 -10 13 0 24 -4 24 -10 0 -5 13
-10 29 -10 16 0 36 -6 43 -13 7 -7 25 -12 41 -12 15 1 33 -5 40 -14 11 -14 10
-14 -5 -2 -10 7 -18 9 -18 4 0 -5 -15 -9 -32 -8 -18 1 -36 -2 -39 -8 -4 -5
-12 -6 -20 -1 -23 14 -49 15 -49 1 0 -9 -2 -9 -9 1 -11 17 -21 17 -32 0 -7
-10 -9 -10 -9 0 0 6 -5 12 -11 12 -5 0 -7 -5 -3 -11 5 -8 2 -9 -12 -1 -15 8
-23 7 -37 -6 -10 -9 -17 -12 -15 -7 2 6 -1 10 -7 10 -5 0 -9 -4 -7 -10 2 -5
-6 -1 -17 9 -19 17 -21 17 -27 2 -5 -13 -9 -14 -21 -4 -11 9 -16 9 -24 -3 -7
-12 -9 -12 -9 1 0 9 -3 11 -8 4 -4 -5 -29 -10 -55 -10 -27 1 -50 -1 -52 -5 -2
-3 -24 -5 -49 -4 -26 0 -46 -2 -46 -5 0 -3 -15 -5 -32 -5 -18 1 -36 -4 -40 -9
-5 -7 -8 -7 -8 2 0 10 -5 10 -20 2 -11 -6 -25 -8 -30 -5 -6 3 -10 1 -10 -4 0
-6 -5 -11 -11 -11 -5 0 -7 6 -3 13 5 8 2 8 -9 -2 -9 -7 -17 -10 -17 -7 0 4 -9
2 -19 -4 -14 -7 -22 -7 -27 1 -4 8 -9 7 -14 -2 -5 -7 -21 -14 -37 -16 -48 -5
-53 -6 -53 -13 0 -4 -7 -7 -15 -8 -8 -1 -22 -3 -30 -4 -8 -1 -15 -7 -15 -14 0
-7 -5 -16 -12 -20 -7 -5 -8 -3 -3 6 5 9 4 11 -3 6 -16 -10 3 -46 24 -46 9 0
12 -5 8 -12 -5 -8 0 -9 14 -6 12 4 22 2 22 -4 0 -5 5 -6 10 -3 5 3 10 2 10 -2
0 -8 23 -13 68 -16 6 0 12 -4 12 -9 0 -4 5 -8 11 -8 5 0 7 6 3 12 -6 10 -3 9
8 0 9 -8 25 -12 35 -10 10 1 24 -1 30 -5 7 -5 13 -5 13 -1 0 3 8 0 17 -7 14
-12 16 -12 8 0 -6 11 -5 12 6 5 17 -10 31 -13 91 -15 26 -1 45 -5 43 -8 -2 -4
6 -8 18 -8 17 -2 19 0 7 7 -9 6 -10 10 -3 10 6 0 15 -4 18 -10 3 -5 13 -10 21
-10 10 0 12 5 8 13 -5 8 -3 8 9 -2 9 -7 26 -11 37 -8 12 3 24 -1 30 -11 5 -10
10 -12 10 -5 0 15 50 13 50 -2 0 -5 5 -3 10 5 9 13 11 13 20 0 9 -13 10 -13
10 0 0 13 1 13 10 0 9 -13 10 -13 10 0 0 12 2 12 9 2 4 -8 12 -14 16 -14 4 0
12 6 16 14 7 10 9 10 9 0 0 -8 11 -11 35 -9 19 2 36 -1 39 -7 3 -7 5 -6 5 2 1
7 5 11 10 8 5 -3 72 -7 150 -8 93 -1 141 -5 141 -12 0 -6 4 -5 9 3 8 13 12 13
27 0 12 -10 15 -10 10 -1 -6 9 -1 12 16 10 12 -2 29 -7 37 -12 10 -7 12 -6 6
4 -6 10 -4 12 7 7 9 -3 21 0 27 6 9 9 11 8 6 -4 -4 -10 -1 -20 6 -25 7 -4 10
-3 5 4 -3 6 3 14 16 18 14 4 24 2 26 -5 3 -9 8 -9 20 1 13 11 15 11 7 -2 -6
-12 -5 -13 6 -2 17 16 32 16 23 -1 -6 -9 -4 -9 7 -2 17 12 39 13 58 1 9 -6 12
-5 8 1 -4 6 29 10 91 10 240 2 328 6 341 17 12 8 13 8 7 -2 -4 -6 -3 -12 3
-12 5 0 13 5 16 10 5 8 11 7 21 -1 11 -9 14 -9 14 1 0 10 3 10 14 1 8 -7 17
-8 20 -3 8 13 56 12 57 -2 0 -6 4 -2 9 9 5 11 9 15 9 10 1 -6 18 -9 41 -7 25
3 37 8 33 15 -4 6 -1 7 8 1 20 -12 42 -11 61 4 11 9 18 10 23 2 3 -5 10 -8 15
-5 4 3 27 6 50 7 22 1 43 6 47 11 3 5 9 4 13 -3 6 -9 14 -8 34 5 19 13 26 14
26 4 0 -10 3 -10 11 -2 6 6 18 9 25 6 8 -3 14 1 14 8 0 11 3 11 10 -1 7 -12
10 -12 10 -1 0 7 6 11 15 7 8 -3 15 -1 15 4 0 5 9 7 20 5 11 -2 20 0 20 6 0 5
3 8 8 8 4 -1 12 0 17 1 6 1 17 3 25 4 8 0 14 6 13 12 -1 7 5 11 15 10 9 0 17
6 17 14 1 17 -34 52 -45 45 -4 -3 -10 2 -14 10 -3 8 -12 12 -21 9 -8 -3 -15
-1 -15 5 0 9 -6 9 -22 0 -22 -12 -22 -11 -8 6 14 17 14 17 -6 7 -16 -9 -26 -8
-42 4 -12 8 -22 11 -22 5 0 -7 -10 -6 -30 1 -17 5 -37 8 -45 4 -8 -3 -17 -1
-20 5 -4 5 -11 7 -16 4 -5 -4 -9 -2 -9 3 0 5 -7 9 -15 9 -8 0 -15 -5 -15 -11
0 -6 -4 -5 -9 3 -11 17 -7 47 7 44 6 -1 9 5 7 15 -1 9 4 25 13 35 8 9 11 17 7
17 -4 0 0 9 10 20 10 11 14 20 10 20 -4 0 0 10 11 22 10 12 14 18 7 15 -8 -5
-8 -1 0 17 7 13 15 22 18 20 4 -2 6 7 4 21 -1 15 3 25 11 25 7 0 11 8 9 20 -2
11 0 20 5 20 10 0 30 56 23 64 -3 3 0 12 7 21 7 8 13 25 14 38 1 12 7 21 12
20 7 -1 9 8 6 22 -2 14 0 25 7 25 5 0 8 7 5 15 -4 8 -1 15 6 15 6 0 8 5 5 10
-4 6 -1 18 7 27 11 14 11 16 -2 8 -12 -7 -13 -6 -3 7 7 8 10 18 6 21 -3 4 -1
7 6 7 7 0 9 5 6 10 -8 13 4 52 14 46 4 -3 6 10 5 29 -2 19 1 37 6 40 5 3 7 12
3 20 -3 9 1 15 8 15 11 0 11 3 -1 10 -12 7 -12 10 -1 10 7 0 11 6 7 15 -3 8 0
15 6 15 7 0 7 4 -1 14 -9 11 -9 16 -1 21 7 4 10 18 7 31 -2 13 -1 21 3 19 6
-4 11 31 11 78 0 9 4 15 10 12 5 -4 5 5 -1 20 -7 19 -7 24 1 19 8 -4 9 1 4 16
-5 15 -2 25 6 31 12 7 12 9 0 9 -9 0 -10 4 -4 13 5 6 9 38 8 69 0 32 3 58 6
58 3 0 3 14 1 31 -3 22 -1 30 7 25 7 -5 9 -1 5 8 -3 9 -11 13 -18 9 -6 -4 -5
1 3 10 8 10 11 20 8 24 -4 3 -2 14 3 24 8 13 6 20 -6 27 -15 8 -15 10 1 15 10
4 13 12 8 19 -10 17 -10 39 -1 59 4 9 2 21 -4 27 -9 9 -8 12 2 12 13 0 13 2 1
9 -12 8 -12 12 -2 25 8 9 9 16 4 16 -5 0 -10 13 -10 30 0 16 4 27 9 24 4 -3 5
2 2 10 -3 9 -11 16 -18 16 -7 0 -7 3 -1 8 12 9 15 52 3 52 -4 0 -8 7 -8 15 0
8 5 15 11 15 5 0 7 5 3 12 -4 7 -8 30 -9 51 -1 31 -6 41 -29 52 -16 8 -32 12
-37 9 -5 -3 -9 0 -9 6 0 6 -4 8 -10 5 -5 -3 -10 -1 -10 4 0 6 -3 10 -7 10 -22
-4 -43 2 -39 10 4 5 -2 8 -11 7 -10 -2 -31 3 -48 10 -51 22 -70 27 -82 25 -7
-1 -13 3 -13 8 0 6 -7 7 -17 4 -10 -4 -14 -2 -10 4 5 7 -4 10 -23 9 -17 -1
-30 1 -30 6 0 4 -7 4 -17 1 -9 -4 -14 -2 -10 3 3 6 -4 11 -16 12 -41 3 -62 7
-82 18 -11 6 -32 10 -47 9 -16 -1 -28 2 -28 7 0 4 -22 8 -48 8 -26 0 -54 6
-61 13 -11 10 -12 9 -6 -3 8 -13 6 -13 -8 -2 -9 8 -21 11 -27 7 -5 -3 -10 -2
-10 3 0 6 -10 8 -22 4 -16 -4 -19 -2 -13 9 7 12 6 12 -7 1 -12 -9 -18 -10 -23
-2 -5 8 -11 8 -21 -1 -11 -9 -14 -9 -14 1 0 8 -3 10 -7 7 -3 -4 -12 -2 -20 4
-10 9 -13 8 -13 0 0 -7 -4 -10 -10 -6 -5 3 -25 6 -45 7 -19 1 -35 6 -35 12 0
6 -5 4 -10 -4 -8 -12 -10 -12 -10 -1 0 11 -3 11 -15 1 -14 -11 -19 -7 -16 13
1 4 -11 0 -26 -10 -20 -13 -25 -14 -16 -3 9 13 7 15 -17 15 -15 0 -26 -3 -23
-7 2 -5 -1 -8 -6 -8 -6 0 -11 6 -11 13 0 8 -4 7 -10 -3 -5 -8 -10 -10 -10 -5
0 6 -81 10 -224 10 -123 0 -222 -3 -219 -7 2 -5 0 -8 -6 -8 -5 0 -12 6 -14 13
-4 9 -6 9 -6 0z m13 -187 c-3 -6 2 -2 10 8 9 11 16 14 16 8 0 -9 5 -10 19 -2
13 7 22 7 26 0 3 -5 11 -10 16 -10 6 0 7 5 3 11 -4 8 0 8 15 0 11 -7 21 -8 21
-3 0 5 7 9 15 9 8 0 15 -5 15 -10 0 -5 7 -4 15 3 13 11 18 10 30 -6 9 -10 15
-14 14 -9 -3 22 2 27 16 15 12 -10 15 -10 15 1 0 11 2 11 10 -1 9 -13 10 -13
10 0 0 13 1 13 11 0 8 -12 12 -12 16 -2 4 10 8 10 20 1 12 -10 16 -10 24 2 7
11 9 11 9 0 0 -11 3 -11 17 0 9 8 14 9 10 3 -4 -7 0 -14 8 -18 8 -3 15 -2 15
3 0 5 17 6 38 2 20 -3 65 -6 100 -6 49 0 61 -3 57 -14 -5 -12 -3 -12 11 0 10
8 18 14 18 13 1 0 11 -6 24 -13 17 -9 22 -9 22 1 0 6 7 3 16 -8 8 -10 13 -13
9 -6 -4 7 0 12 9 12 9 0 16 -6 17 -12 0 -10 2 -10 6 0 4 10 8 10 21 0 13 -11
14 -11 7 2 -7 13 -6 13 7 2 8 -6 34 -13 56 -15 23 -1 44 -6 47 -9 4 -4 13 -4
21 -1 8 3 14 -1 14 -8 0 -11 3 -11 10 1 7 11 10 11 10 2 0 -7 5 -10 10 -7 6 4
18 1 27 -7 14 -11 16 -11 8 1 -6 11 -5 12 6 5 8 -4 19 -9 24 -10 6 -1 26 -5
45 -9 19 -4 41 -8 48 -8 6 0 12 -4 12 -9 0 -5 5 -6 11 -2 6 3 15 0 20 -7 6
-10 9 -11 9 -1 0 19 20 14 20 -5 0 -15 2 -16 10 -3 5 8 10 10 10 5 0 -10 15
-14 62 -16 10 0 20 -5 23 -10 4 -5 11 -7 16 -4 5 4 9 2 9 -3 0 -8 6 -10 50
-14 11 -1 20 -6 20 -10 0 -4 3 -7 8 -7 30 5 41 -16 17 -33 -6 -5 -5 -8 4 -8
11 0 11 -3 0 -17 -8 -9 -9 -14 -3 -10 7 4 12 -2 12 -18 0 -16 -5 -22 -12 -18
-8 5 -8 3 0 -8 15 -20 16 -61 1 -52 -7 4 -6 -1 2 -10 8 -10 11 -20 8 -24 -4
-3 -1 -13 6 -21 8 -11 8 -14 0 -9 -6 4 -14 3 -18 -3 -3 -5 -2 -10 3 -10 5 0 9
-7 9 -15 0 -8 -5 -15 -11 -15 -6 0 -5 -4 3 -9 9 -6 10 -10 2 -16 -9 -5 -9 -10
0 -21 9 -11 8 -14 -2 -14 -11 0 -11 -2 1 -10 8 -5 11 -10 5 -10 -14 0 -15 -50
-1 -50 6 0 5 -4 -3 -9 -13 -8 -13 -12 0 -27 11 -15 12 -16 0 -9 -11 6 -13 2
-9 -19 3 -14 2 -29 -2 -31 -4 -2 -6 -17 -4 -32 1 -15 -3 -34 -9 -42 -10 -12
-9 -13 3 -6 13 8 13 7 1 -8 -10 -13 -10 -17 -1 -17 9 0 9 -4 2 -13 -6 -7 -9
-25 -8 -40 2 -15 0 -27 -4 -27 -5 0 -6 -9 -3 -20 3 -11 0 -20 -6 -20 -13 0
-10 -22 4 -32 6 -5 6 -8 -1 -8 -6 0 -11 -6 -12 -12 -1 -7 -3 -31 -6 -53 -5
-58 -5 -57 -15 -51 -4 3 -6 -5 -4 -18 3 -13 0 -27 -6 -30 -8 -5 -8 -13 0 -28
9 -17 9 -20 -2 -16 -10 4 -15 -5 -17 -31 -4 -58 -6 -71 -13 -71 -3 0 -6 -10
-5 -22 0 -13 -3 -22 -9 -21 -5 1 -11 -17 -12 -39 -2 -22 -8 -47 -14 -54 -6 -7
-8 -18 -5 -23 4 -5 2 -12 -4 -16 -6 -4 -7 -11 -4 -17 4 -7 2 -8 -4 -4 -8 5
-12 -2 -12 -18 0 -14 -4 -26 -10 -26 -5 0 -10 -14 -10 -31 0 -16 -4 -28 -9
-25 -5 3 -11 -12 -15 -34 -3 -22 -11 -40 -17 -40 -6 0 -9 -6 -7 -12 3 -7 -2
-19 -9 -27 -8 -8 -12 -22 -10 -32 3 -10 2 -17 -2 -16 -3 1 -7 -1 -8 -6 -2 -4
-9 -20 -17 -36 -9 -16 -12 -32 -8 -36 4 -5 2 -5 -5 -1 -6 3 -14 2 -18 -4 -9
-14 -65 -12 -66 3 0 9 -2 9 -6 0 -2 -7 -9 -13 -14 -13 -6 0 -7 6 -3 13 5 9 4
9 -6 0 -11 -10 -17 -10 -29 0 -12 9 -13 9 -7 -1 4 -6 2 -12 -3 -12 -6 0 -11 5
-11 11 0 8 -4 9 -13 0 -8 -6 -17 -7 -21 -3 -11 10 -30 9 -38 -3 -5 -7 -8 -6
-8 1 0 10 -55 17 -123 16 -10 -1 -15 4 -11 10 4 7 2 8 -4 4 -21 -13 -53 -16
-46 -4 5 7 0 9 -14 6 -12 -4 -22 -1 -22 4 0 6 -6 5 -15 -2 -8 -7 -15 -8 -15
-3 0 5 -13 8 -30 7 -17 -1 -30 3 -30 9 0 7 -5 5 -10 -3 -9 -13 -10 -13 -10 0
0 13 -1 13 -10 0 -7 -12 -10 -12 -10 -1 0 7 -6 11 -14 8 -8 -3 -17 -1 -20 6
-5 9 -7 9 -12 -1 -3 -6 -11 -9 -17 -5 -7 5 -21 8 -32 8 -11 0 -19 6 -17 13 2
10 -2 10 -18 2 -14 -8 -20 -8 -20 0 0 6 -5 8 -10 5 -6 -4 -18 -1 -27 7 -12 9
-15 9 -9 1 4 -7 2 -13 -3 -13 -6 0 -11 4 -11 8 0 7 -27 13 -72 15 -10 1 -18 4
-18 7 0 3 -12 5 -27 5 -16 -1 -33 3 -40 8 -7 5 -16 6 -21 3 -6 -3 -15 1 -22 8
-6 8 -19 15 -28 14 -9 0 -28 3 -42 7 -14 4 -31 7 -37 7 -7 1 -13 5 -13 10 0 5
-5 6 -11 3 -6 -4 -16 1 -23 11 -9 12 -15 14 -20 6 -4 -7 -12 -12 -17 -12 -6 0
-7 5 -3 12 5 7 2 9 -9 5 -8 -3 -18 0 -21 8 -3 8 -13 11 -27 8 -16 -5 -20 -3
-14 6 5 10 2 11 -14 6 -13 -4 -21 -2 -21 5 0 6 -4 8 -10 5 -5 -3 -10 -1 -10 4
0 6 -3 10 -7 9 -15 -3 -63 14 -63 23 0 5 -6 6 -14 3 -8 -3 -17 0 -21 5 -3 6
-11 9 -16 6 -5 -4 -9 -1 -9 6 0 7 -8 9 -21 6 -12 -3 -22 0 -26 9 -3 8 -14 14
-25 14 -10 0 -17 4 -14 9 3 5 0 9 -7 8 -34 -1 -48 4 -41 15 5 7 3 8 -5 4 -7
-5 -20 -1 -29 6 -29 25 -46 33 -37 17 5 -8 -1 -6 -12 4 -11 10 -30 19 -41 20
-11 0 -18 5 -16 9 3 4 -2 8 -10 8 -9 0 -16 4 -16 8 0 4 -10 9 -22 9 -13 1 -24
7 -26 13 -2 5 -10 10 -19 10 -8 0 -21 7 -30 15 -8 8 -19 13 -24 10 -5 -4 -9
-1 -9 5 0 6 -6 8 -13 4 -6 -4 -9 -3 -4 1 4 5 -1 17 -10 28 -10 11 -13 17 -7
14 7 -4 12 3 12 18 0 14 -4 23 -8 20 -8 -5 -6 27 3 42 4 6 2 15 -3 18 -7 4
-11 35 -10 73 1 37 1 72 0 77 -1 6 -2 14 -1 19 1 4 -4 15 -11 24 -9 10 -9 13
-1 9 8 -5 11 2 11 23 -1 17 -5 33 -10 36 -5 3 -4 12 3 20 6 8 9 23 6 34 -3 11
0 20 6 20 7 0 5 5 -3 10 -13 9 -13 10 0 10 12 0 12 2 1 9 -8 5 -9 11 -3 15 6
3 8 20 5 37 -3 24 -1 29 9 24 10 -6 11 -5 0 6 -14 16 -16 33 -2 24 6 -3 10 -1
10 4 0 6 -6 11 -12 11 -9 0 -10 3 -2 8 6 4 10 17 9 30 -1 12 2 22 5 22 4 0 6
14 4 31 -3 20 0 28 7 23 7 -4 7 2 -1 16 -8 15 -8 20 -1 16 7 -5 11 4 12 23 2
43 3 48 11 56 4 4 4 13 1 21 -3 8 0 14 6 14 6 0 8 7 4 17 -5 12 -3 14 8 8 12
-7 12 -6 1 7 -9 11 -10 18 -2 23 6 3 8 11 5 16 -4 5 -1 9 6 9 7 0 9 3 6 6 -3
4 -2 16 4 27 8 14 8 18 0 13 -6 -4 -11 -2 -11 3 0 6 4 11 9 11 5 0 12 10 16
23 4 12 8 24 9 27 2 3 6 22 10 42 5 21 13 35 18 32 6 -4 8 2 3 15 -3 11 -2 21
3 21 5 0 12 10 15 21 5 17 11 20 32 17 14 -3 28 -1 31 4 3 4 10 6 15 3 5 -4 9
-1 9 6 0 8 5 7 17 -2 14 -12 16 -12 11 2 -5 13 -1 15 19 11 20 -4 24 -2 18 9
-7 11 -6 12 7 2 8 -7 18 -10 22 -6 6 6 56 13 99 14 9 0 16 3 13 7 -2 4 11 8
30 8 22 1 31 -2 27 -10 -4 -6 1 -5 10 2 9 8 21 11 27 7 5 -3 10 1 10 10 0 15
1 15 16 1 17 -17 28 -21 20 -7 -3 5 1 11 9 15 8 3 15 1 15 -5 0 -6 6 -7 12 -2
7 4 47 9 88 11 41 2 81 7 89 12 19 10 43 1 35 -14z"/>
<path d="M1430 2594 c0 -5 -39 -8 -87 -8 -56 1 -91 -3 -95 -10 -5 -7 -11 -8
-15 -1 -10 12 -47 20 -40 8 3 -5 -17 -8 -44 -6 -27 1 -49 -2 -49 -6 0 -5 -11
-6 -25 -3 -14 2 -25 0 -25 -7 0 -7 -8 -8 -25 -1 -16 6 -25 6 -25 0 0 -5 -7 -6
-17 -3 -12 5 -14 3 -8 -7 6 -10 4 -10 -11 -2 -13 7 -26 6 -46 -4 -15 -8 -28
-12 -28 -8 0 4 -8 0 -17 -7 -11 -10 -14 -10 -9 -1 4 6 2 12 -3 12 -6 0 -11 -5
-11 -11 0 -6 -6 -9 -12 -6 -7 2 -22 -3 -32 -12 -14 -11 -17 -12 -11 -2 5 10 4
12 -4 7 -6 -4 -11 -13 -10 -19 3 -26 -1 -48 -9 -43 -4 2 -8 -3 -8 -12 0 -9 -4
-28 -8 -41 -6 -18 -5 -22 4 -16 9 6 11 4 6 -4 -5 -7 -14 -10 -22 -7 -11 4 -12
2 -4 -14 7 -13 7 -21 0 -25 -6 -4 -8 -10 -5 -15 3 -5 1 -11 -4 -15 -6 -3 -8
-12 -4 -20 3 -8 0 -15 -6 -15 -13 0 -10 -22 4 -32 6 -5 5 -8 -3 -8 -7 0 -10
-4 -7 -10 3 -5 1 -10 -5 -10 -6 0 -8 -4 -5 -10 3 -5 3 -15 -1 -22 -4 -7 -8
-25 -8 -41 -1 -15 -7 -31 -14 -36 -11 -7 -10 -10 3 -15 16 -6 16 -8 0 -32 -11
-18 -13 -24 -4 -18 12 6 12 5 0 -9 -11 -14 -11 -17 0 -17 10 0 10 -3 3 -8 -7
-4 -11 -34 -10 -70 1 -51 -2 -61 -14 -57 -9 3 -7 -1 4 -10 12 -9 15 -15 7 -15
-7 0 -11 -6 -8 -15 4 -8 2 -17 -3 -20 -6 -4 -10 -12 -10 -18 0 -7 4 -6 10 3 8
11 9 9 8 -12 -1 -16 -7 -28 -12 -28 -5 0 -1 -6 9 -14 18 -13 18 -13 -1 -24
-13 -8 -14 -11 -5 -12 8 0 12 -3 9 -6 -4 -3 -2 -19 2 -36 8 -27 7 -28 -7 -16
-15 12 -15 11 -3 -12 8 -14 13 -40 11 -59 -1 -18 4 -40 11 -49 10 -12 10 -14
1 -8 -19 11 -16 -2 5 -23 9 -10 30 -21 45 -25 15 -4 26 -10 23 -14 -2 -4 7 -9
22 -10 14 -1 28 -5 31 -10 11 -14 46 -29 64 -26 9 1 15 -2 11 -7 -3 -5 2 -9
11 -9 9 0 14 -4 11 -9 -4 -5 3 -7 14 -4 11 3 20 0 20 -6 0 -6 9 -11 19 -11 11
0 23 -5 26 -10 3 -5 15 -10 26 -10 10 0 19 -4 19 -8 0 -4 12 -9 28 -10 15 -1
29 -7 30 -12 2 -6 15 -10 28 -10 14 0 23 -4 20 -9 -3 -5 6 -9 21 -8 15 0 29
-6 31 -12 2 -6 8 -9 13 -5 5 3 9 0 9 -6 0 -6 4 -9 9 -6 5 3 21 0 36 -8 15 -8
34 -12 43 -9 10 4 13 2 8 -5 -7 -11 18 -17 52 -13 6 1 12 -3 12 -9 0 -5 14
-10 30 -10 17 0 30 -4 30 -8 0 -5 6 -9 13 -10 22 -2 42 -7 56 -16 10 -7 12 -5
6 3 -5 9 1 8 21 -2 16 -8 37 -13 47 -12 9 2 17 -1 17 -6 0 -6 5 -7 10 -4 6 3
10 0 10 -7 0 -9 3 -9 10 2 5 8 10 10 10 5 0 -6 15 -11 33 -11 17 0 31 -5 30
-10 -1 -6 4 -11 12 -11 8 0 11 5 8 11 -3 6 -1 6 7 -1 7 -6 19 -9 26 -6 8 3 20
1 27 -4 6 -5 22 -8 35 -7 12 0 22 -2 22 -5 0 -3 12 -7 28 -8 99 -8 119 -10
129 -16 6 -4 14 -1 16 5 4 10 6 10 6 0 1 -7 6 -10 11 -7 6 3 10 1 10 -6 0 -10
3 -10 11 -2 8 8 19 9 37 2 14 -5 31 -8 39 -5 7 3 13 0 13 -7 0 -8 4 -6 10 3 6
9 10 10 10 3 0 -7 10 -10 24 -7 14 2 27 0 30 -5 4 -6 18 -6 36 -1 17 5 30 5
30 1 0 -4 18 -7 40 -7 22 0 40 4 40 10 0 6 5 4 10 -4 8 -13 14 -10 34 15 16
20 21 34 15 41 -6 8 -4 14 6 18 9 3 14 10 10 15 -3 5 0 13 6 16 5 4 8 14 5 22
-4 10 -2 13 7 10 10 -4 13 2 11 19 -1 13 2 24 7 24 6 0 7 5 4 10 -3 6 -2 10 3
10 6 0 9 6 9 13 -1 21 15 77 22 77 4 0 8 8 9 18 2 18 9 53 12 62 1 3 2 8 1 13
0 4 3 7 8 7 6 0 10 8 10 18 1 32 13 87 23 99 5 7 7 16 4 22 -9 14 5 42 18 34
7 -4 7 -2 -1 7 -8 9 -9 19 -2 32 5 10 7 23 4 28 -3 6 -1 10 5 10 6 0 8 5 5 10
-4 6 -1 17 5 25 10 12 10 15 0 15 -9 0 -10 3 -1 13 6 8 8 17 4 20 -3 4 -1 7 5
7 7 0 12 5 12 11 0 5 -4 7 -10 4 -5 -3 -10 -1 -10 4 0 6 5 11 11 11 5 0 8 4 5
9 -4 5 0 12 6 14 10 4 10 6 1 6 -9 1 -10 8 -3 27 6 14 8 36 6 50 -3 13 -1 24
3 24 4 0 7 10 6 23 -1 12 2 30 6 39 6 10 5 19 -1 23 -7 4 -7 12 0 24 5 10 6
21 3 25 -3 3 -1 6 5 6 7 0 12 5 12 11 0 5 -4 7 -10 4 -14 -9 -12 8 3 24 10 11
10 13 0 7 -7 -4 -13 -2 -13 3 0 6 4 11 9 11 4 0 7 12 5 27 -1 15 1 34 6 43 6
11 5 21 -1 27 -8 8 -7 17 0 32 8 15 8 21 1 21 -7 0 -7 7 1 21 8 15 8 24 1 28
-7 4 -7 12 -3 20 5 8 5 26 1 42 -5 15 -6 30 -4 32 3 2 -2 7 -11 10 -8 4 -15 1
-15 -4 0 -7 -11 -4 -26 6 -15 10 -23 12 -19 4 5 -8 0 -7 -14 3 -12 9 -31 14
-42 11 -10 -3 -19 -1 -19 5 0 6 -9 9 -20 7 -11 -2 -22 0 -25 4 -2 5 -16 7 -30
6 -14 -2 -25 0 -25 5 0 4 -11 8 -25 8 -15 0 -22 -5 -19 -12 3 -6 -1 -3 -9 7
-11 13 -17 15 -23 6 -5 -9 -11 -7 -21 6 -7 11 -13 14 -13 9 0 -6 -7 -11 -15
-11 -8 0 -15 4 -15 9 0 5 -9 6 -20 3 -13 -4 -20 -2 -20 7 0 10 -3 9 -10 -2 -5
-8 -10 -10 -10 -3 0 6 -8 10 -17 8 -10 -1 -26 2 -35 7 -13 6 -18 5 -18 -4 0
-8 -3 -9 -8 -3 -7 11 -50 18 -109 19 -18 1 -33 4 -33 8 0 4 -14 5 -32 1 -25
-5 -29 -3 -23 8 7 11 6 12 -6 2 -12 -10 -18 -10 -29 0 -10 9 -11 9 -6 0 5 -9
2 -11 -8 -7 -9 3 -13 11 -9 18 5 8 3 8 -8 0 -16 -12 -68 -13 -86 -1 -6 4 -14
3 -18 -3 -4 -6 -12 -7 -18 -3 -17 10 -57 12 -57 2 0 -11 -33 1 -42 15 -5 7 -8
7 -8 -2 0 -10 -5 -10 -21 -1 -15 8 -19 8 -15 0 4 -6 3 -11 -3 -11 -5 0 -13 5
-16 11 -5 7 -14 4 -28 -8 -11 -10 -17 -13 -14 -7 9 16 -18 25 -32 11 -9 -9
-14 -8 -21 3 -9 13 -10 13 -10 0 0 -13 -1 -13 -10 0 -8 12 -10 12 -10 1 0 -11
-3 -11 -15 -1 -8 7 -15 9 -15 4z m50 -459 c20 -16 22 -16 11 -2 -12 15 -12 17
3 11 9 -3 16 -13 16 -21 0 -8 5 -11 10 -8 6 3 10 1 10 -5 0 -6 4 -9 8 -6 5 3
15 -4 22 -15 16 -21 35 -26 25 -6 -4 6 2 2 13 -10 11 -13 28 -23 37 -23 9 0
13 -4 10 -10 -3 -5 2 -10 13 -10 10 0 28 -9 40 -20 12 -11 26 -20 32 -20 6 0
8 -5 5 -10 -4 -6 -3 -10 2 -9 22 4 43 -2 38 -11 -5 -8 19 -15 28 -7 1 1 13 -8
27 -20 13 -13 29 -23 36 -23 6 0 14 -7 18 -15 3 -8 15 -15 26 -15 11 0 23 -6
26 -14 3 -9 12 -12 21 -9 10 4 14 2 10 -4 -4 -6 4 -14 18 -17 14 -4 25 -11 25
-17 0 -6 5 -7 10 -4 6 3 10 1 10 -5 0 -6 5 -8 10 -5 6 3 10 -3 10 -14 0 -12
-7 -21 -15 -21 -7 0 -18 -7 -23 -16 -5 -9 -13 -16 -18 -16 -17 0 -84 -33 -84
-40 0 -5 -7 -8 -15 -8 -8 0 -15 -4 -15 -9 0 -7 -28 -19 -47 -19 -3 0 -9 -4
-12 -9 -8 -11 -61 -43 -83 -50 -10 -3 -18 -10 -18 -15 0 -5 -5 -6 -11 -2 -6 3
-14 3 -18 -2 -8 -12 -60 -36 -86 -41 -11 -2 -23 -10 -28 -18 -4 -9 -12 -13
-18 -10 -5 4 -9 1 -9 -5 0 -6 -4 -9 -9 -5 -5 3 -16 -2 -25 -10 -8 -9 -18 -16
-20 -16 -22 -2 -46 -13 -46 -20 0 -13 -39 -6 -45 9 -2 7 -1 11 3 8 10 -6 7
187 -3 204 -5 7 -4 11 1 7 11 -6 10 145 -1 164 -5 8 -4 10 4 5 9 -6 11 3 7 33
-3 28 -1 39 6 35 6 -4 6 1 -1 14 -13 24 -14 35 -3 28 4 -2 8 4 8 15 0 10 -4
19 -9 19 -5 0 -4 7 3 15 7 8 9 15 5 15 -4 0 -2 7 5 15 11 13 10 14 -2 10 -9
-4 -15 0 -15 9 0 8 4 13 9 10 4 -3 6 10 5 28 -4 35 11 77 22 62 3 -5 17 -18
31 -29z"/>
</g>
</svg>
